<svg xmlns="http://www.w3.org/2000/svg" width="125" height="125" viewBox="0 0 125 125" fill="#999">
  <path
    d="M37.8 102.38c-5.5-.453-9.22-1.482-10.687-2.948-.96-.96-1.1-1.526-1.1-4.467 0-11.132 7.797-21.396 18.923-24.9 3.536-1.117 3.94-1.142 17.94-1.133 13.96.01 14.4.038 17.465 1.12 8.444 2.98 14.777 9.27 17.5 17.38 1.48 4.406 1.75 9.663.6 11.44-1.46 2.234-5.63 3.16-16.183 3.587-11.508.467-38.454.426-44.446-.068zm17.357-42.532C47.3 57.034 42.072 51.04 40.68 43.254c-1.034-5.788.86-11.85 5.1-16.337 5.625-5.948 12.3-8.158 20.162-6.67 5.52 1.047 11.706 5.57 14.406 10.53 5.588 10.263 1.402 22.423-9.6 27.853-3.25 1.606-3.8 1.73-8.388 1.88-3.87.127-5.4-.013-7.212-.663z"
  />
</svg>
