<?xml version="1.0" encoding="utf-8"?>
<svg viewBox="0 0 215 185" xmlns="http://www.w3.org/2000/svg">
  <defs>
    <symbol id="bubbles" viewBox="0 0 169.4 97.944">
      <path
        style="fill: var(--bubble-fill-color)"
        class="swell-bubble-bg-fill"
        d="m55.191 84.064-7.7532-8.504-2.3668 0.08735c-1.3017 0.04805-9.6018 0.10107-18.445 0.11784l-16.078 0.03049-0.96828-0.36548c-3.0029-1.1334-5.1309-3.4071-6.0766-6.4923-0.28586-0.93262-0.30029-2.1526-0.30029-25.39 0-26.766-0.058361-25.175 1.0037-27.366 1.0837-2.2362 3.0259-3.9105 5.5253-4.763l1.3058-0.44537 66.025-0.08856v18.914c0 20.972-0.06795 19.613 1.0875 21.738 1.5484 2.8475 4.7111 5.9592 9.0163 8.8712l1.208 0.81703-0.39184 0.30749c-0.97438 0.76464-5.1314 3.472-6.7576 4.401-4.7531 2.7154-10.679 5.0784-15.974 6.3699l-2.2234 0.54232-0.04206 9.861-0.04206 9.861z"
      />
      <path
        style="fill: var(--bubble-fill-color)"
        class="swell-bubble-bg-fill"
        d="m107.56 75.119c-2e-3 -9.0403-0.019-9.6422-0.28035-9.7191-0.15323-0.04507-1.0666-0.27228-2.0298-0.50491-4.2749-1.0325-8.3384-2.5749-12.975-4.9249-4.9855-2.5269-9.779-5.7342-12.316-8.2404-2.0676-2.0426-1.8533 0.32545-1.8506-20.447 0.0026-19.781-0.03683-18.934 0.98117-21.075 0.68101-1.4319 2.6641-3.4018 4.1448-4.1173 2.1403-1.0342-0.2962-0.97291 38.825-0.97594 34.932-0.00271 35.619 0.00309 36.825 0.31097 0.6763 0.17255 1.6728 0.54774 2.2145 0.83377 1.3378 0.70642 2.9132 2.3091 3.6494 3.7127 1.1338 2.1614 1.0692 0.53637 1.0772 27.072 7e-3 23.426 8e-4 23.932-0.30931 24.934-0.88535 2.8584-3.1904 5.1374-6.1389 6.0693-1.0931 0.3455-1.2651 0.3518-8.9948 0.3294-4.3342-0.01257-12.322-0.06431-17.751-0.11499l-9.8704-0.09216-6.8456 7.4532c-3.7651 4.0993-7.1851 7.8315-7.6001 8.2938l-0.75444 0.84062-2e-3 -9.6372z"
      />
      <path
        style="fill: var(--bubble-stroke-color)"
        d="m154.04 0h-64.717a15.467 15.467 0 0 0-13.486 7.924h-60.476a15.367 15.367 0 0 0-15.362 15.363v41.986a15.367 15.367 0 0 0 15.362 15.362c9.176 0 23.634-0.07 28.709-0.139l14.459 15.71a5.52 5.52 0 0 0 4.032 1.738 4.986 4.986 0 0 0 2.016-0.417 5.525 5.525 0 0 0 3.476-5.144v-16.2c7.229-2.224 16.961-7.021 22.661-12.3a71.173 71.173 0 0 0 10.635 4.31v16.2a5.525 5.525 0 0 0 3.476 5.144 5.237 5.237 0 0 0 2.016 0.417 5.637 5.637 0 0 0 4.032-1.738l14.459-15.71c2.781 0 9.871 0.07 28.709 0.139a15.367 15.367 0 0 0 15.358-15.366v-41.986a15.308 15.308 0 0 0-15.359-15.293zm8.55 57.348a8.544 8.544 0 0 1-8.55 8.55c-11.331 0-31.559-0.278-31.559-0.278l-14.32 15.571v-18.073l-2.641-0.626a52.928 52.928 0 0 1-10.635-3.962c-1.043-0.487-2.085-1.043-3.059-1.6-1.112-0.626-2.224-1.251-3.267-1.946-4.518-2.85-7.646-5.7-7.855-7.09v-33.157a9.157 9.157 0 0 1 0.9-3.337 9.432 9.432 0 0 1 2.5-2.989 8.8 8.8 0 0 1 5.144-1.738h64.717a8.544 8.544 0 0 1 8.55 8.55v42.125zm-98.708 13.068-2.641 0.626v18.073l-14.25-15.571s-20.228 0.278-31.628 0.278a8.544 8.544 0 0 1-8.55-8.55v-41.985a8.544 8.544 0 0 1 8.55-8.55h58.6v33.227c0 4.171 4.518 8.689 10.427 12.443a57.648 57.648 0 0 1-20.509 10.01z"
      />
    </symbol>
  </defs>
  <g style="fill: var(--swell-logo-fill-color)">
    <path
      d="M17.9,136.3c0.5-10.4,11-17.4,21.6-16.9c6.2,0.3,12.8,3.5,17.4,8.7l-8.1,8.1c0,0-3-4.4-8.7-4.7c-4.1-0.2-7.3,2.4-7.5,5.6c-0.2,3,2.6,4.6,7.5,7.6l5.5,3.4c7.2,4.3,11.9,11,11.6,19.1c-0.6,11.3-10.8,18.1-22.7,17.7c-7-0.3-13.7-2.4-20.6-10.8l9-9.8c4,5.3,7.9,8.1,12,8.4c3.5,0.2,7.3-1.8,7.6-5.9c0.2-3.7-3.4-5.9-7.9-8.7l-5.5-3.4C23,151.1,17.4,145.3,17.9,136.3z"
    />
    <path d="M100.5,166.3l8.5-30.5l13.6,3.7l-16.8,44.2h-12L87,160.4l-6.7,23.3h-12l-16.8-44.2l13.6-3.7l8.5,30.5l7.3-29h12.3L100.5,166.3z" />
    <path
      d="M145.1,172.3c4.6-1.1,8.2-4.7,8.2-4.7l7.2,9.1c0,0-4,5.5-13.7,7.8c-14.5,3.4-23.9-6.7-26.8-19.2c-2.9-12.5,4.1-26.1,18-29.3c8.7-2,18.4,0.8,20.6,9.6c2.6,11.3-7.8,19.7-22.9,23.5C137.8,172.4,140.5,173.4,145.1,172.3zM147.6,149.9c-0.5-2.3-3.2-3.7-6.4-2.9c-5,1.2-8.8,6.6-8.5,12.3C141.3,157,148.5,153.7,147.6,149.9z"
    />
    <path d="M161.7,183.7v-68h13.6v68H161.7z" />
    <path d="M179.9,183.7v-68h13v68H179.9z" />
  </g>
  <!-- <path
    d="M 195.7 0.5 L 113.7 0.5 C 105.2 0.5 98 6 95.3 13.6 L 20 13.6 C 9.2 13.6 0.5 22.3 0.5 33.1 L 0.5 86.3 C 0.5 97.1 9.2 105.8 20 105.8 L 55.4 105.8 L 56.5 105.8 L 74.8 125.6 C 76.2 127.1 78 127.9 79.8 127.9 C 80.7 127.9 81.5 127.7 82.4 127.4 C 85.1 126.3 86.8 123.7 86.8 120.8 L 86.8 100.2 C 96.9 97.2 110.9 90 117.6 82.5 C 121.6 84.3 125.5 85.9 129 87.1 L 129 107.7 C 129 110.6 130.7 113.2 133.4 114.3 C 134.2 114.6 135.1 114.8 136 114.8 C 137.8 114.8 139.8 114 141 112.5 L 159.3 92.7 L 160.4 92.7 L 195.8 92.7 C 206.6 92.7 215.3 84 215.3 73.2 L 215.3 20 C 215.2 9.4 206.5 0.5 195.7 0.5 Z"
    style="fill-rule: evenodd; fill: rgb(0, 0, 0)"
  />
  <path
    d="M 206 72.7 C 206 78.6 201.1 83.5 195.2 83.5 L 155.3 83.2 L 137.2 102.9 L 137.2 80 L 133.8 79.2 C 129.4 78.1 125 76.5 121 74.5 C 119.5 73.7 118.1 73.1 116.7 72.4 C 115.2 71.5 113.8 70.7 112.4 69.8 C 106.6 66.1 102.8 62.5 102.5 60.8 L 102.5 19.5 C 102.5 18.9 102.5 18.1 102.7 17.5 C 103 16 103.6 14.6 104.4 13.4 C 106.4 10.5 109.6 8.7 113.4 8.7 L 195.4 8.7 C 201.3 8.7 206.2 13.6 206.2 19.5 L 206.2 72.7 L 206 72.7 Z M 80.9 92.4 L 77.5 93.2 L 77.5 116.1 L 59.4 96.3 L 19.5 96.7 C 13.6 96.7 8.7 91.8 8.7 85.9 L 8.7 32.6 C 8.7 26.7 13.6 21.8 19.5 21.8 L 93.7 21.8 L 93.7 60.8 C 93.7 66.6 100.6 72.8 109.1 77.9 C 103.6 82.8 92.2 89.6 80.9 92.4 Z"
    style="fill-rule: evenodd; fill: rgb(255, 255, 255)"
  /> -->
  <use href="#bubbles" x="0" y="0" transform="translate(0,-28)" />
</svg>
