<svg xmlns="http://www.w3.org/2000/svg" viewBox="0 0 250 150" xml:space="preserve">
  <path
    fill="#231f20"
    d="m241,10.1c-4.5,-4.5 -10.5,-7 -16.8,-7l-93.1,0c-8.3,0 -16,4.3 -20.3,11.4l-86.1,0c-13,0 -23.6,10.6 -23.6,23.6l0,60.4c0,13 10.6,23.6 23.6,23.6c12.9,0 32.9,-0.1 40.6,-0.2l20.4,22.1c1.8,1.9 4.3,3 6.9,3c1.2,0 2.4,-0.3 3.5,-0.7c3.6,-1.4 5.9,-4.9 5.9,-8.8l0,-22.2c9.6,-3.1 22.9,-9.5 31.4,-17c4.9,2.3 9.5,4.2 13.5,5.5l0,22.2c0,3.9 2.3,7.3 5.9,8.8c1.2,0.5 2.3,0.7 3.5,0.7c2.6,0 4.9,-1 6.9,-3l20.4,-22.1c1.5,0 3.8,0 7.2,0c6.4,0 16.7,0.1 33.4,0.2c13,0 23.6,-10.6 23.6,-23.6l0,-60.4c0.1,-6.2 -2.3,-12.1 -6.8,-16.5zm-86.2,82.9c-5,-1.2 -10.2,-3.2 -15,-5.6c-1.3,-0.6 -2.8,-1.4 -4.3,-2.2c-1.5,-0.9 -3.1,-1.8 -4.6,-2.8c-7.4,-4.7 -10.3,-8.1 -10.6,-9.1l0,-46.8l0,-0.7c0.1,-1.4 0.5,-2.7 1.1,-4.2c0.8,-1.5 1.8,-2.7 3.1,-3.8c2.1,-1.5 4.3,-2.2 6.5,-2.2l93.1,0c6,0 10.8,4.8 10.8,10.8l0,62.1c-0.7,5.3 -5.2,9.3 -10.7,9.3c-16.1,0 -45.1,-0.4 -45.4,-0.4l-0.7,0l-18.4,20.1l0,-23.3l-4.9,-1.2zm-33.4,-1.4c-6.3,4.6 -16.5,10.3 -27.2,12.9l-5,1.2l0,23.3l-18.3,-20l-0.7,0c-0.3,0 -29.3,0.4 -45.5,0.4c-6,0 -10.8,-4.8 -10.8,-10.8l0,-60.4c0,-6 4.8,-10.8 10.8,-10.8l82.8,0l0,46.3c0,7.1 8,13.9 13.9,17.9z"
  ></path>
</svg>
