<svg version="1.1" viewBox="0 0 169.4 97.944" xmlns="http://www.w3.org/2000/svg">
  <path
    class="swell-bubble-bg-fill"
    d="m55.191 84.064-7.7532-8.504-2.3668 0.08735c-1.3017 0.04805-9.6018 0.10107-18.445 0.11784l-16.078 0.03049-0.96828-0.36548c-3.0029-1.1334-5.1309-3.4071-6.0766-6.4923-0.28586-0.93262-0.30029-2.1526-0.30029-25.39 0-26.766-0.058361-25.175 1.0037-27.366 1.0837-2.2362 3.0259-3.9105 5.5253-4.763l1.3058-0.44537 66.025-0.08856v18.914c0 20.972-0.06795 19.613 1.0875 21.738 1.5484 2.8475 4.7111 5.9592 9.0163 8.8712l1.208 0.81703-0.39184 0.30749c-0.97438 0.76464-5.1314 3.472-6.7576 4.401-4.7531 2.7154-10.679 5.0784-15.974 6.3699l-2.2234 0.54232-0.04206 9.861-0.04206 9.861z"
  />
  <path
    class="swell-bubble-bg-fill"
    d="m107.56 75.119c-2e-3 -9.0403-0.019-9.6422-0.28035-9.7191-0.15323-0.04507-1.0666-0.27228-2.0298-0.50491-4.2749-1.0325-8.3384-2.5749-12.975-4.9249-4.9855-2.5269-9.779-5.7342-12.316-8.2404-2.0676-2.0426-1.8533 0.32545-1.8506-20.447 0.0026-19.781-0.03683-18.934 0.98117-21.075 0.68101-1.4319 2.6641-3.4018 4.1448-4.1173 2.1403-1.0342-0.2962-0.97291 38.825-0.97594 34.932-0.00271 35.619 0.00309 36.825 0.31097 0.6763 0.17255 1.6728 0.54774 2.2145 0.83377 1.3378 0.70642 2.9132 2.3091 3.6494 3.7127 1.1338 2.1614 1.0692 0.53637 1.0772 27.072 7e-3 23.426 8e-4 23.932-0.30931 24.934-0.88535 2.8584-3.1904 5.1374-6.1389 6.0693-1.0931 0.3455-1.2651 0.3518-8.9948 0.3294-4.3342-0.01257-12.322-0.06431-17.751-0.11499l-9.8704-0.09216-6.8456 7.4532c-3.7651 4.0993-7.1851 7.8315-7.6001 8.2938l-0.75444 0.84062-2e-3 -9.6372z"
  />
  <path
    d="m154.04 0h-64.717a15.467 15.467 0 0 0-13.486 7.924h-60.476a15.367 15.367 0 0 0-15.362 15.363v41.986a15.367 15.367 0 0 0 15.362 15.362c9.176 0 23.634-0.07 28.709-0.139l14.459 15.71a5.52 5.52 0 0 0 4.032 1.738 4.986 4.986 0 0 0 2.016-0.417 5.525 5.525 0 0 0 3.476-5.144v-16.2c7.229-2.224 16.961-7.021 22.661-12.3a71.173 71.173 0 0 0 10.635 4.31v16.2a5.525 5.525 0 0 0 3.476 5.144 5.237 5.237 0 0 0 2.016 0.417 5.637 5.637 0 0 0 4.032-1.738l14.459-15.71c2.781 0 9.871 0.07 28.709 0.139a15.367 15.367 0 0 0 15.358-15.366v-41.986a15.308 15.308 0 0 0-15.359-15.293zm8.55 57.348a8.544 8.544 0 0 1-8.55 8.55c-11.331 0-31.559-0.278-31.559-0.278l-14.32 15.571v-18.073l-2.641-0.626a52.928 52.928 0 0 1-10.635-3.962c-1.043-0.487-2.085-1.043-3.059-1.6-1.112-0.626-2.224-1.251-3.267-1.946-4.518-2.85-7.646-5.7-7.855-7.09v-33.157a9.157 9.157 0 0 1 0.9-3.337 9.432 9.432 0 0 1 2.5-2.989 8.8 8.8 0 0 1 5.144-1.738h64.717a8.544 8.544 0 0 1 8.55 8.55v42.125zm-98.708 13.068-2.641 0.626v18.073l-14.25-15.571s-20.228 0.278-31.628 0.278a8.544 8.544 0 0 1-8.55-8.55v-41.985a8.544 8.544 0 0 1 8.55-8.55h58.6v33.227c0 4.171 4.518 8.689 10.427 12.443a57.648 57.648 0 0 1-20.509 10.01z"
  />
</svg>
