<svg width="83" height="30" viewBox="0 0 135.2 47" xmlns="http://www.w3.org/2000/svg">
  <path
    d="M9.3,14.3C9.6,7.5,16.5,2.9,23.5,3.2c4.1,0.2,8.4,2.3,11.4,5.7l-5.3,5.3c0,0-2-2.9-5.7-3.1c-2.7-0.1-4.8,1.6-4.9,3.7c-0.1,2,1.7,3,4.9,5l3.6,2.2c4.7,2.8,7.8,7.2,7.6,12.5c-0.4,7.4-7.1,11.9-14.9,11.6c-4.6-0.2-9-1.6-13.5-7.1l5.9-6.4c2.6,3.5,5.2,5.3,7.9,5.5c2.3,0.1,4.8-1.2,5-3.9c0.1-2.4-2.2-3.9-5.2-5.7l-3.6-2.2C12.7,24,9,20.2,9.3,14.3z"
  ></path>
  <path d="M63.5,34l5.6-20l8.9,2.4l-11,29h-7.9l-4.4-15.3l-4.4,15.3h-7.9l-11-29l8.9-2.4l5.6,20l4.8-19h8.1L63.5,34z"></path>
  <path
    d="M92.8,37.9c3-0.7,5.4-3.1,5.4-3.1l4.7,6c0,0-2.6,3.6-9,5.1c-9.5,2.2-15.7-4.4-17.6-12.6S79,16.2,88.1,14.1c5.7-1.3,12.1,0.5,13.5,6.3c1.7,7.4-5.1,12.9-15,15.4C88,38,89.8,38.6,92.8,37.9z M94.4,23.2c-0.3-1.5-2.1-2.4-4.2-1.9c-3.3,0.8-5.8,4.3-5.6,8.1C90.3,27.9,95,25.7,94.4,23.2z"
  ></path>
  <path d="M103.7,45.4V0.8h8.9v44.6H103.7z"></path>
  <path d="M115.6,45.4V0.8h8.5v44.6H115.6z"></path>
  <g>
    <path
      d="M127.8,1.3h-0.9v2.5h-0.6V1.3h-0.9V0.8h2.4V1.3z M130,2.9l0.8-2.1h0.8v2.9h-0.5V1.4l0,0l-0.9,2.3h-0.4l-0.9-2.3l0,0v2.3h-0.5V0.8h0.8L130,2.9z"
    ></path>
  </g>
</svg>
