<?xml version="1.0" encoding="utf-8"?>
<svg viewBox="0 0 215 185" xmlns="http://www.w3.org/2000/svg">
  <defs>
    <style></style>
  </defs>
  <path
    d="M17.9,136.3c0.5-10.4,11-17.4,21.6-16.9c6.2,0.3,12.8,3.5,17.4,8.7l-8.1,8.1c0,0-3-4.4-8.7-4.7c-4.1-0.2-7.3,2.4-7.5,5.6c-0.2,3,2.6,4.6,7.5,7.6l5.5,3.4c7.2,4.3,11.9,11,11.6,19.1c-0.6,11.3-10.8,18.1-22.7,17.7c-7-0.3-13.7-2.4-20.6-10.8l9-9.8c4,5.3,7.9,8.1,12,8.4c3.5,0.2,7.3-1.8,7.6-5.9c0.2-3.7-3.4-5.9-7.9-8.7l-5.5-3.4C23,151.1,17.4,145.3,17.9,136.3z"
  />
  <path d="M100.5,166.3l8.5-30.5l13.6,3.7l-16.8,44.2h-12L87,160.4l-6.7,23.3h-12l-16.8-44.2l13.6-3.7l8.5,30.5l7.3-29h12.3L100.5,166.3z" />
  <path
    d="M145.1,172.3c4.6-1.1,8.2-4.7,8.2-4.7l7.2,9.1c0,0-4,5.5-13.7,7.8c-14.5,3.4-23.9-6.7-26.8-19.2c-2.9-12.5,4.1-26.1,18-29.3c8.7-2,18.4,0.8,20.6,9.6c2.6,11.3-7.8,19.7-22.9,23.5C137.8,172.4,140.5,173.4,145.1,172.3zM147.6,149.9c-0.5-2.3-3.2-3.7-6.4-2.9c-5,1.2-8.8,6.6-8.5,12.3C141.3,157,148.5,153.7,147.6,149.9z"
  />
  <path d="M161.7,183.7v-68h13.6v68H161.7z" />
  <path d="M179.9,183.7v-68h13v68H179.9z" />
  <path
    d="M 195.7 0.5 L 113.7 0.5 C 105.2 0.5 98 6 95.3 13.6 L 20 13.6 C 9.2 13.6 0.5 22.3 0.5 33.1 L 0.5 86.3 C 0.5 97.1 9.2 105.8 20 105.8 L 55.4 105.8 L 56.5 105.8 L 74.8 125.6 C 76.2 127.1 78 127.9 79.8 127.9 C 80.7 127.9 81.5 127.7 82.4 127.4 C 85.1 126.3 86.8 123.7 86.8 120.8 L 86.8 100.2 C 96.9 97.2 110.9 90 117.6 82.5 C 121.6 84.3 125.5 85.9 129 87.1 L 129 107.7 C 129 110.6 130.7 113.2 133.4 114.3 C 134.2 114.6 135.1 114.8 136 114.8 C 137.8 114.8 139.8 114 141 112.5 L 159.3 92.7 L 160.4 92.7 L 195.8 92.7 C 206.6 92.7 215.3 84 215.3 73.2 L 215.3 20 C 215.2 9.4 206.5 0.5 195.7 0.5 Z"
    style="fill-rule: evenodd; fill: rgb(0, 0, 0)"
  />
  <path
    d="M 206 72.7 C 206 78.6 201.1 83.5 195.2 83.5 L 155.3 83.2 L 137.2 102.9 L 137.2 80 L 133.8 79.2 C 129.4 78.1 125 76.5 121 74.5 C 119.5 73.7 118.1 73.1 116.7 72.4 C 115.2 71.5 113.8 70.7 112.4 69.8 C 106.6 66.1 102.8 62.5 102.5 60.8 L 102.5 19.5 C 102.5 18.9 102.5 18.1 102.7 17.5 C 103 16 103.6 14.6 104.4 13.4 C 106.4 10.5 109.6 8.7 113.4 8.7 L 195.4 8.7 C 201.3 8.7 206.2 13.6 206.2 19.5 L 206.2 72.7 L 206 72.7 Z M 80.9 92.4 L 77.5 93.2 L 77.5 116.1 L 59.4 96.3 L 19.5 96.7 C 13.6 96.7 8.7 91.8 8.7 85.9 L 8.7 32.6 C 8.7 26.7 13.6 21.8 19.5 21.8 L 93.7 21.8 L 93.7 60.8 C 93.7 66.6 100.6 72.8 109.1 77.9 C 103.6 82.8 92.2 89.6 80.9 92.4 Z"
    style="fill-rule: evenodd; fill: rgb(255, 255, 255)"
  />
</svg>
